<svg width="24" height="24" viewBox="0 0 24 24" fill="none" xmlns="http://www.w3.org/2000/svg">
<path d="M17.7713 14.3887C17.135 15.2241 16.3935 15.9789 15.6143 16.7722C15.4258 16.964 15.2352 17.1581 15.0433 17.3561C14.0787 18.3514 13.101 19.4296 12.3944 20.7192L12.2192 21.0389C12.1244 21.2121 11.8756 21.2121 11.7807 21.0389L11.6056 20.7192C10.899 19.4296 9.92133 18.3514 8.95672 17.3561C8.76482 17.1581 8.57417 16.964 8.38573 16.7722C7.60649 15.9789 6.86501 15.2241 6.22867 14.3887C5.30067 13.1704 4.75 11.6506 4.75 10C4.75 5.99594 7.99594 2.75 12 2.75C16.0041 2.75 19.25 5.99594 19.25 10C19.25 11.6506 18.6993 13.1704 17.7713 14.3887Z" fill="#FFE666" stroke="#FF8000" stroke-width="1.5"/>
<circle cx="12" cy="10" r="2.75" fill="white" stroke="#FF8000" stroke-width="1.5"/>
</svg>
