<svg width="18" height="18" viewBox="0 0 18 18" fill="none" xmlns="http://www.w3.org/2000/svg">
<path d="M13.482 10.1886C12.9659 10.9126 12.3389 11.56 11.6817 12.2387C11.5724 12.3516 11.4622 12.4653 11.3515 12.5805C10.5897 13.3732 9.81443 14.2229 9.25898 15.2367C9.14691 15.4412 8.85309 15.4412 8.74102 15.2367C8.18557 14.2229 7.41029 13.3732 6.64845 12.5805C6.53782 12.4653 6.42765 12.3516 6.31832 12.2387C5.66107 11.56 5.03408 10.9125 4.51803 10.1886C3.87698 9.28929 3.5 8.18941 3.5 7C3.5 3.96243 5.96243 1.5 9 1.5C12.0376 1.5 14.5 3.96243 14.5 7C14.5 8.18941 14.123 9.28929 13.482 10.1886Z" stroke="#6C7680"/>
<circle cx="9" cy="7" r="2.5" stroke="#6C7680"/>
</svg>
