<svg width="18" height="18" viewBox="0 0 14 14" fill="none" xmlns="http://www.w3.org/2000/svg">
<path d="M11.1418 8.27292C10.9605 8.4486 10.8772 8.70266 10.9185 8.95183L11.5407 12.3954C11.5932 12.6872 11.47 12.9826 11.2257 13.1513C10.9864 13.3263 10.6679 13.3473 10.4069 13.2073L7.30696 11.5905C7.19917 11.5331 7.07949 11.5023 6.957 11.4988H6.76733C6.70154 11.5086 6.63715 11.5296 6.57835 11.5618L3.47776 13.1863C3.32448 13.2633 3.1509 13.2906 2.98082 13.2633C2.56648 13.1849 2.29001 12.7901 2.35791 12.3737L2.98082 8.93013C3.02212 8.67887 2.93883 8.4234 2.75755 8.24492L0.230183 5.79524C0.0188106 5.59017 -0.0546798 5.28221 0.0419076 5.00435C0.135695 4.72718 0.375064 4.52491 0.664126 4.47941L4.14267 3.97478C4.40724 3.94748 4.63961 3.78651 4.75859 3.54854L6.29139 0.405947C6.32779 0.335956 6.37468 0.271565 6.43137 0.216972L6.49436 0.167978C6.52726 0.131583 6.56506 0.101487 6.60705 0.0769899L6.68334 0.0489936L6.80232 0H7.09699C7.36015 0.0272964 7.59182 0.184776 7.71291 0.419945L9.266 3.54854C9.37799 3.77741 9.59566 3.93629 9.84693 3.97478L13.3255 4.47941C13.6194 4.52141 13.8651 4.72438 13.9624 5.00435C14.0541 5.28501 13.975 5.59297 13.7594 5.79524L11.1418 8.27292Z" fill="#DAE0E6"/>
</svg>
